<?xml version="1.0" encoding="UTF-8"?>
<svg width="18px" height="18px" viewBox="0 0 18 18" version="1.1" xmlns="http://www.w3.org/2000/svg" xmlns:xlink="http://www.w3.org/1999/xlink">
    <!-- Generator: Sketch 57.1 (83088) - https://sketch.com -->
    <title>bangiao</title>
    <desc>Created with Sketch.</desc>
    <g id="Homepage" stroke="none" stroke-width="1" fill="none" fill-rule="evenodd">
        <g id="4.1-New-user" transform="translate(-386.000000, -1217.000000)" fill="#9B9B9B" fill-rule="nonzero">
            <path d="M399.517578,1218.21289 C400.900398,1219.00977 401.99316,1220.0996 402.795898,1221.48242 C403.598637,1222.86524 404,1224.37109 404,1226 C404,1227.62891 403.598637,1229.13476 402.795898,1230.51758 C401.99316,1231.9004 400.900398,1232.99316 399.517578,1233.7959 C398.134759,1234.59864 396.628914,1235 395,1235 C393.371086,1235 391.865241,1234.59864 390.482422,1233.7959 C389.099602,1232.99316 388.00684,1231.9004 387.204102,1230.51758 C386.401363,1229.13476 386,1227.62891 386,1226 C386,1224.37109 386.401363,1222.86524 387.204102,1221.48242 C388.00684,1220.0996 389.099602,1219.00684 390.482422,1218.2041 C391.865241,1217.40136 393.371086,1217 395,1217 C396.628914,1217 398.134759,1217.40429 399.517578,1218.21289 Z M400.466797,1231.4668 C401.181644,1230.75195 401.738279,1229.93165 402.136719,1229.00586 C402.535158,1228.05664 402.734375,1227.05469 402.734375,1226 C402.734375,1224.94531 402.529299,1223.94336 402.119141,1222.99414 C401.73242,1222.06835 401.181644,1221.24805 400.466797,1220.5332 C399.75195,1219.81836 398.931645,1219.26172 398.005859,1218.86328 C397.056636,1218.46484 396.054693,1218.26562 395,1218.26562 C393.945307,1218.26562 392.943364,1218.4707 391.994141,1218.88086 C391.068355,1219.26758 390.24805,1219.81836 389.533203,1220.5332 C388.818356,1221.24805 388.261721,1222.06835 387.863281,1222.99414 C387.464842,1223.94336 387.265625,1224.94531 387.265625,1226 C387.265625,1227.05469 387.470701,1228.05664 387.880859,1229.00586 C388.26758,1229.93165 388.818356,1230.75195 389.533203,1231.4668 C390.24805,1232.18164 391.068355,1232.73828 391.994141,1233.13672 C392.943364,1233.53516 393.945307,1233.73438 395,1233.73438 C396.054693,1233.73438 397.056636,1233.5293 398.005859,1233.11914 C398.931645,1232.73242 399.75195,1232.18164 400.466797,1231.4668 Z M398.884766,1225.85938 C399.060548,1225.85938 399.20996,1225.9209 399.333008,1226.04395 C399.456055,1226.16699 399.517578,1226.31641 399.517578,1226.49219 C399.517578,1226.66797 399.456055,1226.81738 399.333008,1226.94043 C399.20996,1227.06348 399.060548,1227.125 398.884766,1227.125 L395.632812,1227.125 C395.281248,1227.125 394.982423,1227.00195 394.736328,1226.75586 C394.490233,1226.50976 394.367188,1226.21094 394.367188,1225.85938 L394.367188,1221.64062 C394.367188,1221.46484 394.42871,1221.31543 394.551758,1221.19238 C394.674805,1221.06934 394.824218,1221.00781 395,1221.00781 C395.175782,1221.00781 395.325195,1221.06934 395.448242,1221.19238 C395.57129,1221.31543 395.632812,1221.46484 395.632812,1221.64062 L395.632812,1225.85938 L398.884766,1225.85938 Z" id="bangiao"></path>
        </g>
    </g>
</svg>