<?xml version="1.0" encoding="UTF-8"?>
<svg width="18px" height="16px" viewBox="0 0 18 16" version="1.1" xmlns="http://www.w3.org/2000/svg" xmlns:xlink="http://www.w3.org/1999/xlink">
    <!-- Generator: Sketch 57.1 (83088) - https://sketch.com -->
    <title>congty</title>
    <desc>Created with Sketch.</desc>
    <g id="Homepage" stroke="none" stroke-width="1" fill="none" fill-rule="evenodd">
        <g id="4.1-New-user" transform="translate(-344.000000, -1221.000000)" fill="#9B9B9B">
            <path d="M360.945312,1235.23828 C360.945312,1235.52902 360.708711,1235.76562 360.417969,1235.76562 L345.582031,1235.76562 C345.291289,1235.76562 345.054688,1235.52902 345.054688,1235.23828 L345.054688,1226.88635 L345.896117,1229.41043 C346.111695,1230.05755 346.714871,1230.49219 347.396832,1230.49219 L350.363281,1230.49219 L350.363281,1231.01953 C350.363281,1231.3108 350.599355,1231.54688 350.890625,1231.54688 L355.109375,1231.54688 C355.400645,1231.54688 355.636719,1231.3108 355.636719,1231.01953 L355.636719,1230.49219 L358.603168,1230.49219 C359.285129,1230.49219 359.888305,1230.05755 360.103883,1229.41043 L360.945312,1226.88635 L360.945312,1235.23828 Z M351.417969,1230.49219 L354.582031,1230.49219 L354.582031,1229.4375 L351.417969,1229.4375 L351.417969,1230.49219 Z M360.740984,1224.16406 L359.103301,1229.07687 C359.031477,1229.29262 358.830453,1229.4375 358.603168,1229.4375 L355.636719,1229.4375 L355.636719,1228.91016 C355.636719,1228.61889 355.400645,1228.38281 355.109375,1228.38281 L350.890625,1228.38281 C350.599355,1228.38281 350.363281,1228.61889 350.363281,1228.91016 L350.363281,1229.4375 L347.396832,1229.4375 C347.169547,1229.4375 346.968523,1229.29262 346.896699,1229.07687 L345.259051,1224.16406 L360.740984,1224.16406 Z M350.363281,1222.58203 C350.363281,1222.29129 350.599883,1222.05469 350.890625,1222.05469 L355.109375,1222.05469 C355.400117,1222.05469 355.636719,1222.29129 355.636719,1222.58203 L355.636719,1223.10938 L350.363281,1223.10938 L350.363281,1222.58203 Z M361.475961,1223.10952 C361.474871,1223.10952 361.473746,1223.10938 361.472656,1223.10938 L356.691406,1223.10938 L356.691406,1222.58203 C356.691406,1221.70973 355.981707,1221 355.109375,1221 L350.890625,1221 C350.018328,1221 349.308594,1221.70973 349.308594,1222.58203 L349.308594,1223.10938 L344.527344,1223.10938 C344.233719,1223.10938 344,1223.34998 344,1223.63672 L344,1235.23828 C344,1236.11058 344.709734,1236.82031 345.582031,1236.82031 L360.417969,1236.82031 C361.290301,1236.82031 362,1236.11058 362,1235.23828 L362,1223.64783 L362,1223.64579 C361.97982,1223.29943 361.766809,1223.11145 361.475961,1223.10952 L361.475961,1223.10952 Z" id="congty"></path>
        </g>
    </g>
</svg>