<?xml version="1.0" encoding="UTF-8"?>
<svg width="18px" height="18px" viewBox="0 0 18 18" version="1.1" xmlns="http://www.w3.org/2000/svg" xmlns:xlink="http://www.w3.org/1999/xlink">
    <!-- Generator: Sketch 57.1 (83088) - https://sketch.com -->
    <title>dientich</title>
    <desc>Created with Sketch.</desc>
    <defs>
        <polygon id="path-1" points="0 0.0142966507 2.75601962 0.0142966507 2.75601962 2.77027751 0 2.77027751"></polygon>
        <polygon id="path-3" points="0 0.0430191388 2.75601962 0.0430191388 2.75601962 2.799 0 2.799"></polygon>
    </defs>
    <g id="Homepage" stroke="none" stroke-width="1" fill="none" fill-rule="evenodd">
        <g id="4.1-New-user" transform="translate(-437.000000, -1226.000000)">
            <g id="dientich" transform="translate(437.000000, 1226.000000)">
                <path d="M6.88994785,0.961708134 L5.05261292,0.961708134 C4.79906268,0.961708134 4.59326842,1.16750239 4.59326842,1.42105263 C4.59326842,1.67460287 4.79906268,1.88039713 5.05261292,1.88039713 L6.88994785,1.88039713 C7.14440239,1.88039713 7.34929234,1.67460287 7.34929234,1.42105263 C7.34929234,1.16750239 7.14444545,0.961708134 6.88994785,0.961708134" id="Fill-1" fill="#9B9B9B"></path>
                <path d="M12.4019096,0.961708134 L10.5645746,0.961708134 C10.3110244,0.961708134 10.1052301,1.16750239 10.1052301,1.42105263 C10.1052301,1.67460287 10.3110244,1.88039713 10.5645746,1.88039713 L12.4019096,1.88039713 C12.6563641,1.88039713 12.8612541,1.67460287 12.8612541,1.42105263 C12.8612541,1.16750239 12.6564072,0.961708134 12.4019096,0.961708134" id="Fill-3" fill="#9B9B9B"></path>
                <path d="M6.88994785,15.2009569 L5.05261292,15.2009569 C4.79906268,15.2009569 4.59326842,15.4067512 4.59326842,15.6603014 C4.59326842,15.9138517 4.79906268,16.1196459 5.05261292,16.1196459 L6.88994785,16.1196459 C7.14440239,16.1196459 7.34929234,15.9138517 7.34929234,15.6603014 C7.34929234,15.4067512 7.14444545,15.2009569 6.88994785,15.2009569" id="Fill-5" fill="#9B9B9B"></path>
                <path d="M12.4019096,15.2009569 L10.5645746,15.2009569 C10.3110244,15.2009569 10.1052301,15.4067512 10.1052301,15.6603014 C10.1052301,15.9138517 10.3110244,16.1196459 10.5645746,16.1196459 L12.4019096,16.1196459 C12.6554598,16.1196459 12.8612541,15.9138517 12.8612541,15.6603014 C12.8612541,15.4067512 12.6564072,15.2009569 12.4019096,15.2009569" id="Fill-7" fill="#9B9B9B"></path>
                <path d="M1.37798612,10.1483397 C1.12353158,10.1483397 0.918641627,10.354134 0.918641627,10.6076842 L0.918641627,12.4449761 C0.918641627,12.6985263 1.12443589,12.9043206 1.37798612,12.9043206 C1.63153636,12.9043206 1.83733062,12.6985263 1.83733062,12.4449761 L1.83733062,10.6076411 C1.83733062,10.3540909 1.63248373,10.1483397 1.37798612,10.1483397" id="Fill-9" fill="#9B9B9B"></path>
                <path d="M1.37798612,4.63637799 C1.12353158,4.63637799 0.918641627,4.84217225 0.918641627,5.09572249 L0.918641627,6.93301435 C0.918641627,7.18656459 1.12443589,7.39235885 1.37798612,7.39235885 C1.63244067,7.39235885 1.83733062,7.18656459 1.83733062,6.93301435 L1.83733062,5.09567943 C1.83733062,4.84212919 1.63248373,4.63637799 1.37798612,4.63637799" id="Fill-11" fill="#9B9B9B"></path>
                <path d="M15.6172349,10.6076842 L15.6172349,12.4449761 C15.6172349,12.6985263 15.8230292,12.9043206 16.0765794,12.9043206 C16.3301297,12.9043206 16.5359239,12.6985263 16.5359239,12.4449761 L16.5359239,10.6076411 C16.5358809,10.3540909 16.331034,10.1483397 16.0765794,10.1483397 C15.8230292,10.1483397 15.6172349,10.354134 15.6172349,10.6076842 Z" id="Fill-13" fill="#9B9B9B"></path>
                <path d="M16.0765794,4.63637799 C15.8221249,4.63637799 15.6172349,4.84217225 15.6172349,5.09572249 L15.6172349,6.93301435 C15.6172349,7.18656459 15.8230292,7.39235885 16.0765794,7.39235885 C16.3301297,7.39235885 16.5359239,7.18656459 16.5359239,6.93301435 L16.5359239,5.09567943 C16.5358809,4.84212919 16.331034,4.63637799 16.0765794,4.63637799" id="Fill-15" fill="#9B9B9B"></path>
                <path d="M16.9952254,0.043062201 L15.1578904,0.043062201 C14.9043402,0.043062201 14.6985459,0.248856459 14.6985459,0.502406699 L14.6985459,2.33974163 C14.6985459,2.59329187 14.9043402,2.79908612 15.1578904,2.79908612 L16.9952254,2.79908612 C17.2496799,2.79908612 17.4545699,2.59329187 17.4545699,2.33974163 L17.4545699,0.502406699 C17.4545699,0.248856459 17.2496799,0.043062201 16.9952254,0.043062201" id="Fill-17" fill="#9B9B9B"></path>
                <g id="Group-21" transform="translate(0.000000, 0.028766)">
                    <mask id="mask-2" fill="white">
                        <use xlink:href="#path-1"></use>
                    </mask>
                    <g id="Clip-20"></g>
                    <path d="M2.29667512,0.0142966507 L0.459340191,0.0142966507 C0.205789952,0.0142966507 -4.3062201e-06,0.220090909 -4.3062201e-06,0.473641148 L-4.3062201e-06,2.31097608 C-4.3062201e-06,2.56448325 0.205789952,2.77027751 0.459340191,2.77027751 L2.29667512,2.77027751 C2.55112967,2.77027751 2.75601962,2.56448325 2.75601962,2.31093301 L2.75601962,0.473641148 C2.75597656,0.220090909 2.55112967,0.0142966507 2.29667512,0.0142966507" id="Fill-19" fill="#9B9B9B" mask="url(#mask-2)"></path>
                </g>
                <g id="Group-24" transform="translate(0.000000, 14.239292)">
                    <mask id="mask-4" fill="white">
                        <use xlink:href="#path-3"></use>
                    </mask>
                    <g id="Clip-23"></g>
                    <path d="M2.29667512,0.0430191388 L0.459340191,0.0430191388 C0.205789952,0.0430191388 -4.3062201e-06,0.248813397 -4.3062201e-06,0.502363636 L-4.3062201e-06,2.3396555 C-4.3062201e-06,2.59320574 0.205789952,2.799 0.459340191,2.799 L2.29667512,2.799 C2.55112967,2.799 2.75601962,2.59320574 2.75601962,2.3396555 L2.75601962,0.502320574 C2.75597656,0.248770335 2.55112967,0.0430191388 2.29667512,0.0430191388" id="Fill-22" fill="#9B9B9B" mask="url(#mask-4)"></path>
                </g>
                <path d="M16.9952254,14.282311 L15.1578904,14.282311 C14.9043402,14.282311 14.6985459,14.4881053 14.6985459,14.7416555 L14.6985459,16.5789904 C14.6985459,16.8325407 14.9043402,17.0383349 15.1578904,17.0383349 L16.9952254,17.0383349 C17.2496799,17.0383349 17.4545699,16.8325407 17.4545699,16.5789904 L17.4545699,14.7416555 C17.4545699,14.4881053 17.2496799,14.282311 16.9952254,14.282311" id="Fill-25" fill="#9B9B9B"></path>
            </g>
        </g>
    </g>
</svg>