<?xml version="1.0" encoding="UTF-8"?>
<svg width="20px" height="20px" viewBox="0 0 20 20" version="1.1" xmlns="http://www.w3.org/2000/svg" xmlns:xlink="http://www.w3.org/1999/xlink">
    <!-- Generator: Sketch 57.1 (83088) - https://sketch.com -->
    <title>gia</title>
    <desc>Created with Sketch.</desc>
    <g id="Homepage" stroke="none" stroke-width="1" fill="none" fill-rule="evenodd">
        <g id="4.1-New-user" transform="translate(-221.000000, -1227.000000)">
            <g id="gia" transform="translate(221.000000, 1227.000000)">
                <circle id="Oval" stroke="#9B9B9B" cx="10" cy="10" r="9.5"></circle>
                <path d="M10.237037,9.33333333 C10.8098794,9.48148222 11.2691341,9.63950533 11.6148148,9.80740741 C12.0888913,10.034569 12.4493815,10.3061713 12.6962963,10.6222222 C12.9925941,11.0074093 13.1407407,11.4765404 13.1407407,12.0296296 C13.1407407,12.6321018 12.9283972,13.125924 12.5037037,13.5111111 C12.1283932,13.8567919 11.6148181,14.0938265 10.962963,14.2222222 L10.962963,15.5555556 L9.11111111,15.5555556 L9.11111111,14.2222222 C8.47900919,14.0839499 7.96543407,13.8271624 7.57037037,13.4518519 C7.1358003,13.037035 6.89876563,12.503707 6.85925926,11.8518519 L8.22222222,11.8518519 C8.24197541,12.2469156 8.39012207,12.5530853 8.66666667,12.7703704 C8.98271763,13.0271618 9.4419723,13.1555556 10.0444444,13.1555556 C10.6469166,13.1555556 11.0962948,13.0271618 11.3925926,12.7703704 C11.6098776,12.5728385 11.7185185,12.3358039 11.7185185,12.0592593 C11.7185185,11.7234551 11.6000012,11.4469147 11.362963,11.2296296 C11.0666652,10.9432084 10.5679047,10.7160502 9.86666667,10.5481481 C8.93826696,10.3308631 8.24197763,10.0345698 7.77777778,9.65925926 C7.24444178,9.22468919 6.97777778,8.6716083 6.97777778,8 C6.97777778,7.42715763 7.18518311,6.93827363 7.6,6.53333333 C7.98518711,6.15802281 8.48888578,5.90617348 9.11111111,5.77777778 L9.11111111,4.44444444 L10.962963,4.44444444 L10.962963,5.80740741 C11.5950649,5.9555563 12.0888871,6.25184963 12.4444444,6.6962963 C12.770372,7.11111319 12.9432098,7.59505896 12.962963,8.14814815 L11.6,8.14814815 C11.5703702,7.279008 11.0518569,6.84444444 10.0444444,6.84444444 C9.53086163,6.84444444 9.12592741,6.95061622 8.82962963,7.16296296 C8.53333185,7.3753097 8.38518519,7.65431926 8.38518519,8 C8.38518519,8.29629778 8.52345541,8.54814711 8.8,8.75555556 C9.07654459,8.962964 9.55555215,9.15555467 10.237037,9.33333333 Z" id="" fill="#9B9B9B" fill-rule="nonzero"></path>
            </g>
        </g>
    </g>
</svg>