<?xml version="1.0" encoding="UTF-8"?>
<svg width="30px" height="20px" viewBox="0 0 30 20" version="1.1" xmlns="http://www.w3.org/2000/svg" xmlns:xlink="http://www.w3.org/1999/xlink">
    <!-- Generator: Sketch 59.1 (86144) - https://sketch.com -->
    <title>Group 14</title>
    <desc>Created with Sketch.</desc>
    <defs>
        <polygon id="path-1" points="1.28660776e-05 0.288208169 11.3960452 0.288208169 11.3960452 6.34468379 1.28660776e-05 6.34468379"></polygon>
        <polygon id="path-3" points="1.37850831e-05 0.308794466 12.2100484 0.308794466 12.2100484 6.79787549 1.37850831e-05 6.79787549"></polygon>
    </defs>
    <g id="Du-an" stroke="none" stroke-width="1" fill="none" fill-rule="evenodd">
        <g id="1.2-Listing" transform="translate(-806.000000, -498.000000)">
            <g id="Group-49" transform="translate(806.000000, 498.000000)">
                <g id="Group-14">
                    <polygon id="Fill-1" fill="#0298DA" points="4.64061265 15.7941502 14.483498 15.7941502 9.64436759 19.7658893 20.5810606 19.7658893 15.7423913 15.7941502 25.5838933 15.7941502 25.5838933 14.0584453 4.64061265 14.0584453"></polygon>
                    <g id="Group-7" transform="translate(0.000000, 1.252121)">
                        <path d="M9.51718709,5.53853096 C9.33227273,5.53853096 9.18932148,5.68102108 9.18932148,5.86685771 L9.18932148,10.3564493 L6.86013834,10.3564493 L6.86013834,8.52344532 C6.86013834,8.35144269 6.71672596,8.20065217 6.54380105,8.20065217 L4.85974308,8.20065217 C4.67436759,8.20065217 4.52496047,8.35144269 4.52496047,8.52344532 L4.52496047,10.3564493 L2.20177207,10.3564493 L2.20177207,6.01626482 C2.20177207,5.84241765 2.05835968,5.69900527 1.87344532,5.69900527 C1.70052042,5.69900527 1.55710804,5.84241765 1.55710804,6.01626482 L1.55710804,10.6852372 C1.55710804,10.8581621 1.70052042,11.0029578 1.87344532,11.0029578 L4.85974308,11.0029578 C5.03266798,11.0029578 5.17561924,10.8581621 5.17561924,10.6852372 L5.17561924,8.8522332 L6.21547431,8.8522332 L6.21547431,10.6852372 C6.21547431,10.8581621 6.35796443,11.0029578 6.54380105,11.0029578 L9.51718709,11.0029578 C9.69103426,11.0029578 9.83398551,10.8581621 9.83398551,10.6852372 L9.83398551,5.86685771 C9.83398551,5.68102108 9.69103426,5.53853096 9.51718709,5.53853096" id="Fill-2" fill="#0298DA"></path>
                        <g id="Group-6">
                            <mask id="mask-2" fill="white">
                                <use xlink:href="#path-1"></use>
                            </mask>
                            <g id="Clip-5"></g>
                            <path d="M11.3031555,5.79409091 L8.71158762,3.19099473 L8.71158762,1.41747694 C8.71158762,1.23256258 8.56171937,1.0891502 8.37680501,1.0891502 C8.20341897,1.0891502 8.06046772,1.23256258 8.06046772,1.41747694 L8.06046772,2.5407971 L5.92219368,0.390072464 C5.85671278,0.323669302 5.77924242,0.288162055 5.70177207,0.288162055 C5.61138999,0.288162055 5.53391963,0.325052701 5.46889987,0.390072464 L0.0994664032,5.75858366 C-0.0291897233,5.88723979 -0.0370289855,6.0938274 0.0994664032,6.2123386 C0.219361001,6.34975626 0.42502635,6.34099473 0.553682477,6.2123386 L5.70177207,1.07716074 L10.8369499,6.26075758 C10.8904414,6.31424901 10.9683729,6.34468379 11.0698221,6.34468379 C11.1592819,6.34468379 11.2367523,6.31424901 11.3031555,6.26075758 C11.4225889,6.14132411 11.4313505,5.92413043 11.3031555,5.79409091" id="Fill-4" fill="#0298DA" mask="url(#mask-2)"></path>
                        </g>
                    </g>
                    <g id="Group-13" transform="translate(17.391304, 0.382556)">
                        <path d="M10.1969862,5.93414032 C9.99886364,5.93414032 9.84570158,6.0868083 9.84570158,6.28591897 L9.84570158,11.0961957 L7.35014822,11.0961957 L7.35014822,9.13226285 C7.35014822,8.94797431 7.19649209,8.78641304 7.01121542,8.78641304 L5.20686759,8.78641304 C5.00825099,8.78641304 4.84817194,8.94797431 4.84817194,9.13226285 L4.84817194,11.0961957 L2.3590415,11.0961957 L2.3590415,6.44599802 C2.3590415,6.2597332 2.20538538,6.10607708 2.00726285,6.10607708 C1.82198617,6.10607708 1.66833004,6.2597332 1.66833004,6.44599802 L1.66833004,11.4484684 C1.66833004,11.6337451 1.82198617,11.7888834 2.00726285,11.7888834 L5.20686759,11.7888834 C5.39214427,11.7888834 5.54530632,11.6337451 5.54530632,11.4484684 L5.54530632,9.48453557 L6.65943676,9.48453557 L6.65943676,11.4484684 C6.65943676,11.6337451 6.81210474,11.7888834 7.01121542,11.7888834 L10.1969862,11.7888834 C10.383251,11.7888834 10.536413,11.6337451 10.536413,11.4484684 L10.536413,6.28591897 C10.536413,6.0868083 10.383251,5.93414032 10.1969862,5.93414032" id="Fill-8" fill="#0298DA"></path>
                        <g id="Group-12">
                            <mask id="mask-4" fill="white">
                                <use xlink:href="#path-3"></use>
                            </mask>
                            <g id="Clip-11"></g>
                            <path d="M12.1105237,6.20795455 L9.33384387,3.41892292 L9.33384387,1.5187253 C9.33384387,1.32060277 9.17327075,1.16694664 8.97514822,1.16694664 C8.78937747,1.16694664 8.63621542,1.32060277 8.63621542,1.5187253 L8.63621542,2.72228261 L6.34520751,0.417934783 C6.27504941,0.346788538 6.19204545,0.308745059 6.1090415,0.308745059 C6.01220356,0.308745059 5.9291996,0.348270751 5.85953557,0.417934783 L0.106571146,6.16991107 C-0.0312747036,6.30775692 -0.039673913,6.52910079 0.106571146,6.65607708 C0.235029644,6.80331028 0.455385375,6.79392292 0.593231225,6.65607708 L6.1090415,1.15410079 L11.6110178,6.70795455 C11.66833,6.7652668 11.7518281,6.79787549 11.8605237,6.79787549 C11.9563735,6.79787549 12.0393775,6.7652668 12.1105237,6.70795455 C12.2384881,6.57999012 12.2478755,6.34728261 12.1105237,6.20795455" id="Fill-10" fill="#0298DA" mask="url(#mask-4)"></path>
                        </g>
                    </g>
                </g>
            </g>
        </g>
    </g>
</svg>