<?xml version="1.0" encoding="UTF-8"?>
<svg width="18px" height="18px" viewBox="0 0 18 18" version="1.1" xmlns="http://www.w3.org/2000/svg" xmlns:xlink="http://www.w3.org/1999/xlink">
    <!-- Generator: Sketch 57.1 (83088) - https://sketch.com -->
    <title>thicong</title>
    <desc>Created with Sketch.</desc>
    <g id="Homepage" stroke="none" stroke-width="1" fill="none" fill-rule="evenodd">
        <g id="4.1-New-user" transform="translate(-475.000000, -1229.000000)" fill="#9B9B9B">
            <path d="M485.617187,1239.54688 L491.945312,1239.54688 L491.945312,1237.4375 L485.617187,1237.4375 L485.617187,1239.54688 Z M483.4375,1231.10938 L490.766172,1231.10938 L491.293516,1232.16406 L483.4375,1232.16406 L483.4375,1231.10938 Z M482.382812,1234.27344 L478.164062,1234.27344 L478.164062,1230.05469 L481.418477,1230.05469 C481.577594,1230.50356 481.933937,1230.85987 482.382812,1231.01902 L482.382812,1234.27344 Z M481.328125,1235.63704 L479.21875,1237.74642 L479.21875,1235.32812 L481.328125,1235.32812 L481.328125,1235.63704 Z M479.21875,1245.94531 L479.21875,1245.56608 L481.328125,1243.45671 L481.328125,1245.94531 L479.21875,1245.94531 Z M481.328125,1240.91048 L479.437176,1239.01953 L481.328125,1237.12862 L481.328125,1240.91048 Z M479.21875,1240.29268 L481.109699,1242.18359 L479.21875,1244.07454 L479.21875,1240.29268 Z M476.054687,1232.16406 L477.109375,1232.16406 L477.109375,1231.10938 L476.054687,1231.10938 L476.054687,1232.16406 Z M488.78125,1233.21875 L493.000035,1233.21875 L491.418004,1230.05469 L482.910156,1230.05469 C482.619379,1230.05469 482.382812,1229.81812 482.382812,1229.52734 L482.382812,1229 L477.109375,1229 L477.109375,1230.05469 L475,1230.05469 L475,1233.21875 L477.109375,1233.21875 L477.109375,1235.32812 L478.164062,1235.32812 L478.164062,1245.94531 L476.054687,1245.94531 L476.054687,1247 L484.492187,1247 L484.492187,1245.94531 L482.382812,1245.94531 L482.382812,1235.32812 L483.4375,1235.32812 L483.4375,1233.21875 L487.726562,1233.21875 L487.726562,1236.38281 L484.5625,1236.38281 L484.5625,1240.60156 L493.000035,1240.60156 L493.000035,1236.38281 L488.78125,1236.38281 L488.78125,1233.21875 Z" id="thicong"></path>
        </g>
    </g>
</svg>