<svg id="Layer_1" data-name="Layer 1" xmlns="http://www.w3.org/2000/svg" viewBox="0 0 938 305"><defs><style>.cls-1{fill:#ccc}.cls-2{fill:#b4b4b4}.cls-3{fill:#ddd}.cls-4{fill:#cfcfcf}.cls-5{fill:#e2e2e2}.cls-6{fill:#cecece}.cls-7{fill:#fff}.cls-8{fill:#eee}.cls-9{fill:#e1e1e1}.cls-10{fill:#949494}</style></defs><path class="cls-1" d="M167.7 40.73A3.61 3.61 0 0 0 169 38a17.42 17.42 0 0 1 .3-3 2.55 2.55 0 0 1 2.09-2c1.26-.06 2.16 1.2 2.67 2.35s1 2.49 2.21 3a5.67 5.67 0 0 0 2.46.08 2.6 2.6 0 0 1 2.29.67c.77 1 .13 2.39-.74 3.25a8 8 0 0 1-1.59 1.19 5.7 5.7 0 0 0-1.2.74c-1 .9-.87 2.43-.75 3.75a6.52 6.52 0 0 1-.26 3.13 2.47 2.47 0 0 1-2.48 1.58c-1.37-.23-2-1.83-2.32-3.18s-.9-3-2.26-3.23a4 4 0 0 0-1.72.16c-1.31.31-2.84.46-3.88-.4a2.51 2.51 0 0 1-.18-3.52c1.17-1.19 3.36-1 4.38-2.31"/><path class="cls-1" d="M168.14 41.17c1.21-1.31.89-2.17 1.48-3.65q-.1-2.46 3.86-1.85a16.38 16.38 0 0 0 .86 1.73 4 4 0 0 0 .8 1c1.24 1 6.33.24 4.66 3.52-.7 1.37-2.73 1.38-3.46 2.9a4.45 4.45 0 0 0-.32 1.69A7.82 7.82 0 0 0 176 48c.46 1.87-.73 2.62-3.58 2.23-1-.91-.55-2.9-1.78-3.9-.9-.74-1.39-.29-2.35-.61-1.79.67-2.74-.49-2.83-3.48l1-.33c.25-.27 1.56-.89 1.92-1.2.61-.53-.28-1.41-.88-.89-1.86 1.61-6 1.68-5.06 5.2.68 2.57 2.81 2 4.84 2.18 4.6.38 2.95 5.69 6.64 6.17 2.47.32 3.34-2.41 3.42-4.31.11-2.7.3-3.91 2.47-5.6a5.07 5.07 0 0 0 2-2.56c.48-2.06-.74-2.51-2.29-3.12-2-.78-3.57-1.09-5-2.74-.74-.86-.26-1-1.15-1.75a2.88 2.88 0 0 0-2.06-.9c-3.81.19-2.41 6.09-4.1 7.9-.54.59.34 1.48.89.89zM522.28 277.6a9.71 9.71 0 0 0 2.19-5.88 13.29 13.29 0 0 1 0-2.36 2.26 2.26 0 0 1 1.37-1.78 2 2 0 0 1 1.79.38 4.84 4.84 0 0 1 1.2 1.46c1 1.64 1.7 3.59 3.37 4.49.86.47 2 .66 2.48 1.49a2.78 2.78 0 0 1-.33 2.83 8.54 8.54 0 0 0-1.42 2.64 6.24 6.24 0 0 0 0 1.83 20.15 20.15 0 0 1 .1 2.06 3.11 3.11 0 0 1-.76 2.46 2.44 2.44 0 0 1-1.47.5 3 3 0 0 1-1.61-.3 3.76 3.76 0 0 1-1.58-2.43 9.72 9.72 0 0 0-1-2.81 3.51 3.51 0 0 0-1.61-1.34c-1-.42-2.34-.42-3-1.33a1.63 1.63 0 0 1 .54-2.24l.13-.07M849.79 70.59a17 17 0 0 1 .35-4.88 4 4 0 0 1 .43-1.22c.85-1.38 2.84-1.4 4.44-1.13A32.28 32.28 0 0 1 861.2 65a2.62 2.62 0 0 1 2.16 3 1.29 1.29 0 0 1 0 .19 63.27 63.27 0 0 1-.66 6.74 2.52 2.52 0 0 1-.3 1c-.45.71-1.44.78-2.27.76q-3.06 0-6.1-.26a5.08 5.08 0 0 1-1.59-.29 3.48 3.48 0 0 1-1.87-2.4 19.18 19.18 0 0 1-.78-4.25M306.51 24.53a3.53 3.53 0 0 0 1.25-2.66 15.9 15.9 0 0 1 .3-3 2.51 2.51 0 0 1 2.06-2c1.25-.06 2.14 1.18 2.65 2.32s1 2.47 2.18 2.92a5.3 5.3 0 0 0 2.44.08 2.63 2.63 0 0 1 2.27.67c.76.94.12 2.37-.74 3.22a7.46 7.46 0 0 1-1.57 1.17 6 6 0 0 0-1.18.73c-1 .89-.87 2.41-.75 3.71a6.44 6.44 0 0 1-.26 3.11 2.45 2.45 0 0 1-2.44 1.6c-1.36-.22-2-1.81-2.3-3.14s-.89-2.93-2.24-3.21a4 4 0 0 0-1.69.17c-1.31.3-2.82.45-3.85-.41a2.47 2.47 0 0 1-.17-3.47c1.15-1.19 3.32-1 4.33-2.3"/><path class="cls-1" d="M307 25c1.2-1.29.89-2.14 1.46-3.61q-.09-2.43 3.82-1.83a12.37 12.37 0 0 0 .85 1.71 4.24 4.24 0 0 0 .8.94c1.22.94 6.24.25 4.6 3.48-.69 1.36-2.71 1.37-3.42 2.88a4.17 4.17 0 0 0-.32 1.67 7.53 7.53 0 0 0 0 1.5q.69 2.79-3.53 2.22c-.94-.9-.55-2.88-1.76-3.87-.9-.73-1.38-.28-2.33-.6-1.77.65-2.71-.5-2.8-3.44l1-.32c.25-.27 1.54-.88 1.9-1.19.61-.53-.28-1.41-.88-.89-1.84 1.59-5.93 1.66-5 5.15.68 2.55 2.78 2 4.8 2.16 4.54.38 2.92 5.64 6.57 6.11 2.44.31 3.31-2.39 3.39-4.27.1-2.67.29-3.87 2.44-5.54a5 5 0 0 0 1.95-2.54c.48-2-.73-2.48-2.27-3.1-1.94-.76-3.53-1.07-4.92-2.7-.73-.85-.26-1-1.14-1.73a2.84 2.84 0 0 0-2.05-.9c-3.77.19-2.38 6-4 7.83-.55.59.33 1.47.88.88zm64.16 238.89c-2.18-.52-4.75-.28-6.25 1.39a8.36 8.36 0 0 0-1.41 2.61 10.12 10.12 0 0 0-.71 2.35 5.52 5.52 0 0 0 3 5.5 6.18 6.18 0 0 0 6.34-.7 7.09 7.09 0 0 0 2.69-5.88c-.09-2.37-1.63-4.85-4-5.26M81.79 221.11c-1.47 2.35-2.22 5.47-.85 7.88a10.37 10.37 0 0 0 2.5 2.7 13 13 0 0 0 2.47 1.76 6.87 6.87 0 0 0 7.67-1.39 7.71 7.71 0 0 0 1.7-7.72 8.86 8.86 0 0 0-5.84-5.49c-2.82-.83-6.33 0-7.74 2.57m705.56 55.08a12.4 12.4 0 0 0-6.55 4.71 16.61 16.61 0 0 1-1.76 2.48 2.92 2.92 0 0 1-2.74.92 2.67 2.67 0 0 1-1.64-1.7 6 6 0 0 1-.23-2.42c.15-2.44.76-5.05-.37-7.21-.59-1.12-1.62-2.11-1.58-3.37s1.22-2.25 2.39-2.79a11 11 0 0 0 3.41-1.79 8.77 8.77 0 0 0 1.29-2c.42-.78.88-1.54 1.37-2.28a4 4 0 0 1 2.58-2.07 3.21 3.21 0 0 1 1.93.51 4 4 0 0 1 1.5 1.49 4.92 4.92 0 0 1-.06 3.73 12.78 12.78 0 0 0-1 3.69 4.46 4.46 0 0 0 .76 2.58c.79 1.18 2.2 2.13 2.21 3.55a2.1 2.1 0 0 1-2.16 2h-.21M56.89 83.29a16 16 0 0 1 .33-4.68 3.67 3.67 0 0 1 .42-1.16c.81-1.33 2.71-1.34 4.24-1.09A31.22 31.22 0 0 1 67.81 78a3.33 3.33 0 0 1 1.75 1.19 3.41 3.41 0 0 1 .28 1.81 63.61 63.61 0 0 1-.63 6.46 2.36 2.36 0 0 1-.29 1c-.44.68-1.38.74-2.18.73-1.94 0-3.89-.12-5.83-.25a4.92 4.92 0 0 1-1.52-.28 3.34 3.34 0 0 1-1.8-2.29 18.13 18.13 0 0 1-.74-4.07m130.58 185.37a3.61 3.61 0 0 0 1.26-2.67 15.89 15.89 0 0 1 .29-3 2.53 2.53 0 0 1 2.07-2c1.26-.06 2.15 1.19 2.66 2.33s1 2.47 2.18 2.93a5.48 5.48 0 0 0 2.45.08 2.63 2.63 0 0 1 2.27.67c.77.94.13 2.38-.74 3.23a7.46 7.46 0 0 1-1.57 1.17 6.07 6.07 0 0 0-1.19.74c-1 .89-.87 2.41-.75 3.72a6.44 6.44 0 0 1-.26 3.11 2.43 2.43 0 0 1-2.44 1.6c-1.37-.22-2-1.81-2.31-3.15s-.89-2.93-2.24-3.21a3.93 3.93 0 0 0-1.7.17c-1.31.3-2.83.45-3.85-.41a2.48 2.48 0 0 1-.18-3.48c1.16-1.19 3.33-1 4.34-2.3"/><path class="cls-1" d="M187.87 268.11c1.21-1.3.89-2.15 1.47-3.62q-.1-2.44 3.83-1.84a12.49 12.49 0 0 0 .85 1.72 4.24 4.24 0 0 0 .8.94c1.22.94 6.26.25 4.61 3.48-.69 1.37-2.71 1.38-3.43 2.89a4.16 4.16 0 0 0-.31 1.67 7 7 0 0 0 .05 1.52c.45 1.85-.74 2.59-3.55 2.22-.94-.91-.55-2.89-1.76-3.88-.9-.73-1.39-.29-2.34-.6q-2.66 1-2.81-3.45l1-.32c.25-.27 1.54-.89 1.9-1.2.61-.53-.28-1.41-.88-.88-1.85 1.59-5.94 1.66-5 5.15.68 2.56 2.79 2 4.81 2.17 4.55.38 2.92 5.65 6.59 6.12 2.44.32 3.32-2.39 3.39-4.28.11-2.67.3-3.87 2.45-5.55a5.12 5.12 0 0 0 2-2.54c.47-2-.74-2.49-2.28-3.11-2-.77-3.54-1.07-4.93-2.7-.74-.86-.26-1-1.15-1.75a2.85 2.85 0 0 0-2-.89c-3.78.19-2.38 6-4.06 7.84-.55.59.33 1.48.88.89zm685.24-46c-1.06 1.69-1.6 3.92-.62 5.65a7.51 7.51 0 0 0 1.8 1.93 9.23 9.23 0 0 0 1.77 1.27 4.93 4.93 0 0 0 5.5-1 5.5 5.5 0 0 0 1.21-5.54 6.31 6.31 0 0 0-4.18-3.93c-2-.6-4.54 0-5.55 1.84"/><path class="cls-2" d="M875 113.85c-6.34 6.31-9.25 15.18-12.16 23.64-.93 2.7-2 5.61-4.5 7.07a9 9 0 0 1-3.85 1.1 16 16 0 0 1-6.81-.92 6 6 0 0 0-3.11-.64 3.4 3.4 0 0 0-2.36 2.22 9.88 9.88 0 0 0-.48 3.33c-.08 2.68-.16 4.7-.24 7.39a6.58 6.58 0 0 0 .13 1.77 2.35 2.35 0 0 0 1.07 1 18.19 18.19 0 0 0 8.08 2.05 33.29 33.29 0 0 0 14.35-1.66c4.54-1.74 8.6-5.11 10.38-9.63a22.76 22.76 0 0 0 1.31-6.68c.68-9.58-1.23-19.15-1.6-28.76"/><circle class="cls-3" cx="803.79" cy="224.67" r="9.23"/><path class="cls-3" d="M788.12 219.29a16.75 16.75 0 0 1 29.22-4.18c3.75 5.15 12.43.16 8.63-5.05-13.09-18-39.88-14.4-47.49 6.57-2.2 6.06 7.46 8.67 9.64 2.66z"/><path class="cls-3" d="M774.91 208a33.74 33.74 0 0 1 46.26-11.68 34.25 34.25 0 0 1 5.94 4.5c4.69 4.41 11.77-2.65 7.07-7.07a43.88 43.88 0 0 0-67.91 9.2c-3.33 5.53 5.31 10.56 8.64 5z"/><path class="cls-2" d="M130.17 87s6.65-13.29 19.16-9.38 10.16 21.3 10.16 21.3A49.12 49.12 0 0 1 147 123.37c-18.37 5.08-31.47-8-31.47-8s-12.22-11.65-2-23.84c6.28-7.45 16.64-4.53 16.64-4.53z"/><path class="cls-4" d="M659.93 60.81s-.19 3.93 4.4 5.34c35.11 7.72 49-7.13 54.54-20.8l-21.34-27.23c-37.84 1.94-37.6 42.69-37.6 42.69z"/><path class="cls-5" d="M693.27 30.55L680.65 41.2c-3.69 3.12 1.64 8.4 5.31 5.3l12.61-10.65c3.7-3.11-1.63-8.4-5.3-5.3z"/><path class="cls-5" d="M690.42 31l7.15 8.48a3.78 3.78 0 0 0 5.31 0 3.83 3.83 0 0 0 0-5.3l-7.16-8.48a3.77 3.77 0 0 0-5.3 0 3.83 3.83 0 0 0 0 5.3zm-14.2 12l7.16 8.48a3.77 3.77 0 0 0 5.3 0 3.83 3.83 0 0 0 0-5.3l-7.15-8.48a3.78 3.78 0 0 0-5.31 0 3.83 3.83 0 0 0 0 5.3zm7.1-6l7.16 8.48c1.3 1.55 3.95 1.35 5.3 0a3.83 3.83 0 0 0 0-5.3l-7.16-8.48a3.77 3.77 0 0 0-5.3 0 3.83 3.83 0 0 0 0 5.3z"/><path class="cls-3" d="M661.72 48.31l13.83 19.63a64.93 64.93 0 0 0 10.71.19l-20.83-29.82a50.07 50.07 0 0 0-3.71 10z"/><path class="cls-4" d="M722.46 26.56s1-4.95-6-6.6c-2.61-.58-5.1-1-7.47-1.32l12.77 16.15a46.35 46.35 0 0 0 .7-8.23z"/><path class="cls-3" d="M709 18.64a63.07 63.07 0 0 0-11.49-.52l21.34 27.23a49.53 49.53 0 0 0 2.92-10.56z"/><path class="cls-6" d="M282 259.86s-3.3-2.36-4.87 0-8.48 9.9-20.11 3-3.95-20.86-3.95-20.86 8-12.26 15.56-18.07 17.59-1.73 17.59-1.73 20.59 5.8 27.78 11.1 7.07 10.06 7.07 10.06 3.61 20.58-3.62 30.17-14.77 7.07-14.77 7.07-12.93-2.83-11.19-15.83c.39-1.24-.28-1.3-.28-1.3z"/><rect class="cls-7" x="266.01" y="236.51" width="12.63" height="3.54" rx="1.77" transform="rotate(-66.16 272.321 238.284)"/><rect class="cls-7" x="270.55" y="231.98" width="3.54" height="12.63" rx="1.77" transform="rotate(-66.16 272.316 238.292)"/><circle class="cls-8" cx="311.84" cy="247.34" r="2.45"/><circle class="cls-8" cx="308.63" cy="256.46" r="2.45"/><circle class="cls-8" cx="315.41" cy="253.73" r="2.45"/><circle class="cls-8" cx="305.06" cy="250.08" r="2.45"/><circle class="cls-8" cx="293.21" cy="240.55" r="4.07"/><path class="cls-6" d="M535.11 60.8l-3.92-1.14c-3.61-1-4.94-5.88-3.16-10.21L540 20.4c.54-1.32 2.4-1.92 4.16-1.41l1.91.55c1.76.52 3 2 2.76 3.43l-5.53 30.91c-.87 4.61-4.58 7.97-8.19 6.92z"/><path class="cls-6" d="M556 3.86c-.08 0-.1.18-.1.18L553 14a1.94 1.94 0 0 1-2.4 1.31l-8-2.33a1.94 1.94 0 0 1-1.31-2.4L544 1.17s.15-.35 0-.53-.34-.16-.62-.1A13.79 13.79 0 1 0 556.16 4c-.07-.08-.1-.14-.16-.14z"/><path class="cls-9" d="M582.82 17.55l.48-7.85a1.21 1.21 0 0 0-1.07-1l-3.76-1a1.29 1.29 0 0 0-1.45.39l-3.37 7.11a1.44 1.44 0 0 0 .05 1.35l.56 4.31a.09.09 0 0 0 0 .07L571 33.71a2.57 2.57 0 0 0 1.84 3.12l.26.06a2.56 2.56 0 0 0 3.11-1.83l3.3-12.79v-.06l2.58-3.5a1.44 1.44 0 0 0 .73-1.16z"/><path class="cls-4" d="M576.76 41.75s-.41-2.73.88-4.1a3.62 3.62 0 0 0-1.16-6.49l-3.85-1a3.63 3.63 0 0 0-4.18 5.08 4.49 4.49 0 0 1-1.06 4 3.62 3.62 0 0 0-1.36 2l-5.93 23a3.64 3.64 0 0 0 2.61 4.42l3.84 1a3.65 3.65 0 0 0 4.45-2.59l5.94-23a3.61 3.61 0 0 0-.17-2.27z"/><circle class="cls-8" cx="899.44" cy="134.76" r="32.19"/><circle class="cls-10" cx="899.44" cy="134.76" r="4.15"/><circle class="cls-1" cx="899.44" cy="115.73" r="8.59"/><circle class="cls-1" cx="880.95" cy="128.98" r="8.59"/><circle class="cls-1" cx="887.84" cy="150.66" r="8.59"/><circle class="cls-1" cx="910.59" cy="150.81" r="8.59"/><circle class="cls-1" cx="917.76" cy="129.22" r="8.59"/><circle class="cls-2" cx="693.67" cy="235.88" r="14.9"/><circle class="cls-2" cx="693.67" cy="235.88" r="2.12"/><circle class="cls-2" cx="714.84" cy="250.16" r="14.9"/><circle class="cls-2" cx="714.84" cy="250.16" r="2.12"/><path class="cls-2" transform="rotate(-55.99 713.75 283.173)" d="M702.79 278.42h21.86v9.51h-21.86z"/><path class="cls-2" transform="rotate(-56 699.168 252)" d="M692 239.85h14.34v24.3H692z"/><rect class="cls-3" x="673.23" y="238.4" width="31.43" height="54.66" rx="11.53" transform="rotate(-56 688.938 265.728)"/><rect class="cls-3" x="702.27" y="280.3" width="31.42" height="10" rx="3.82" transform="rotate(-56 717.977 285.294)"/><path class="cls-2" d="M667.32 236.7l11.18 7.55a4.93 4.93 0 0 1 1.34 6.85 4.94 4.94 0 0 1-6.86 1.34l-11.18-7.55a4.93 4.93 0 0 1-1.34-6.85 4.94 4.94 0 0 1 6.86-1.34z"/><path class="cls-2" d="M668.8 233.39a4.33 4.33 0 0 1 1.16 6l-4.69 7a4.33 4.33 0 0 1-6 1.17 4.32 4.32 0 0 1-1.16-6l4.69-7a4.33 4.33 0 0 1 6-1.17zm26.37 22.1l5.56 3.76a4.93 4.93 0 0 1 1.33 6.85 4.94 4.94 0 0 1-6.86 1.34l-5.56-3.76a4.93 4.93 0 0 1-1.33-6.85 4.94 4.94 0 0 1 6.86-1.34zm15.43 10.41a4.33 4.33 0 0 1 1.16 6l-.69 1a4.32 4.32 0 0 1-6 1.16 4.32 4.32 0 0 1-1.16-6l.7-1a4.31 4.31 0 0 1 5.99-1.16z"/><rect class="cls-2" x="211.23" y="22.86" width="61.28" height="38.34" rx="11.81" transform="rotate(-72.25 241.867 42.031)"/><path class="cls-3" transform="rotate(-72.47 241.707 40.095)" d="M222.17 25.81h39.04V54.4h-39.04z"/><rect class="cls-10" x="248.79" y="6.65" width="1.89" height="21.58" rx=".94" transform="rotate(-72.25 249.728 17.435)"/><rect class="cls-10" x="233.58" y="54.14" width="1.89" height="21.58" rx=".94" transform="rotate(-72.25 234.53 64.93)"/><path d="M427.53 279.86l-6.79-4.39a12 12 0 0 1-.59-1.26l-4.24-10.61c-3.36-8.42 3.51-19.15 15.27-23.85l4.37-1.75c11.76-4.69 24.13-1.65 27.49 6.78l4.24 10.6a12.63 12.63 0 0 1 .56 1.81l-2.51 8.87" stroke="#ccc" stroke-width="13" fill="none" stroke-miterlimit="10"/><path class="cls-8" d="M433.61 300.79c-2.86.66-5.88-1.4-6.71-4.57l-3.53-13.53c-.83-3.16.84-6.29 3.7-6.94 2.86-.65 5.88 1.4 6.71 4.57l3.53 13.53c.83 3.15-.84 6.29-3.7 6.94z"/><path class="cls-4" d="M443.14 302.7c-3.59.82-7.37-1.76-8.4-5.72l-4.42-17c-1-4 1.05-7.88 4.63-8.7 3.58-.82 7.36 1.76 8.4 5.73l4.42 17c1.04 3.99-1.05 7.88-4.63 8.69z"/><path class="cls-8" d="M476.19 284.81c2.52-1.5 3.29-5.07 1.71-7.93l-6.76-12.24c-1.58-2.87-4.94-4-7.47-2.49-2.52 1.5-3.29 5.07-1.71 7.94l6.76 12.24c1.58 2.86 4.94 3.98 7.47 2.48z"/><path class="cls-4" d="M471.65 291.32c3.16-1.88 4.12-6.35 2.14-9.94l-8.46-15.32c-2-3.59-6.19-5-9.35-3.12-3.16 1.88-4.13 6.35-2.15 9.94l8.47 15.33c1.98 3.59 6.19 4.99 9.35 3.11z"/><path class="cls-3" d="M61.52 147.62S62.05 162 50.42 169c0 0-3.35 2.41-2.41 4.3s3.77 7.23.94 9-6.07-.21-6.07-.21-4.72-2.52-6-6.08c-.84-2.41-2.2-2-2.2-2s-10.58 2.41-19.59-11.94 5.76-29.64 5.76-29.64 10.58-12.36 27.86-5a21 21 0 0 1 12.81 20.19z"/><path class="cls-9" d="M145.37 88.42c-.82-1.56-1.63-3.44-.83-5a3.55 3.55 0 0 1 4.46-1.35 6.27 6.27 0 0 1 3.21 3.83 5.81 5.81 0 0 1 .06 4.3 3.14 3.14 0 0 1-3.6 1.82 5 5 0 0 1-2.38-2.48l-1.42-2.44M143 110.86a40.19 40.19 0 0 0 3.68-9.46 10.89 10.89 0 0 1 1.21-3.4 3.11 3.11 0 0 1 3.11-1.52c1.48.31 2.23 2 2.44 3.49.57 4.13-1.21 8.24-3.55 11.69-1.24 1.82-2.85 3.66-5 4a2.44 2.44 0 0 1-2.42-.8 3.25 3.25 0 0 1 0-2.76c.27-.89 1.05-1.79 1.32-2.69"/><path class="cls-2" d="M799.7 75.9s14.77-1.64 18.28 11S805.6 107 805.6 107a49.13 49.13 0 0 1-27.31 2.76C764.05 97.08 767.94 79 767.94 79s3.15-16.59 19-14.59c9.6 1.19 12.76 11.49 12.76 11.49z"/><path class="cls-9" d="M806.76 89.42c.87-1.53 2-3.23 3.76-3.41a3.57 3.57 0 0 1 3.56 3 6.29 6.29 0 0 1-1.47 4.78A5.76 5.76 0 0 1 809 96.2a3.13 3.13 0 0 1-3.48-2 5 5 0 0 1 .8-3.35l1.28-2.51m-20.97 11.28a40.13 40.13 0 0 0 9.94-2.05 11 11 0 0 1 3.52-.83 3.11 3.11 0 0 1 2.91 1.74c.54 1.42-.47 3-1.61 4-3.16 2.72-7.58 3.46-11.75 3.37-2.2 0-4.61-.41-6.08-2.06a2.44 2.44 0 0 1-.64-2.46 3.24 3.24 0 0 1 2.32-1.5c.89-.26 2.08-.1 3-.36"/><path class="cls-1" d="M623.54 18.23c-2.46-.58-5.36-.32-7 1.57a9.43 9.43 0 0 0-1.54 2.94 11.74 11.74 0 0 0-.8 2.65 6.26 6.26 0 0 0 3.43 6.22 7 7 0 0 0 7.16-.8 8 8 0 0 0 3-6.63c-.11-2.68-1.84-5.47-4.48-5.93"/><path class="cls-2" d="M594.7 230.9s14.77-1.64 18.28 11S600.6 262 600.6 262a49.13 49.13 0 0 1-27.31 2.76C559.05 252.08 562.94 234 562.94 234s3.15-16.59 19-14.59c9.6 1.19 12.76 11.49 12.76 11.49z"/><path class="cls-9" d="M601.76 244.42c.87-1.53 2-3.23 3.76-3.41a3.57 3.57 0 0 1 3.56 3 6.29 6.29 0 0 1-1.47 4.78 5.76 5.76 0 0 1-3.61 2.41 3.13 3.13 0 0 1-3.48-2 5 5 0 0 1 .8-3.35l1.28-2.51m-20.97 11.28a40.13 40.13 0 0 0 9.94-2.05 11 11 0 0 1 3.52-.83 3.12 3.12 0 0 1 2.94 1.74c.54 1.42-.47 3-1.61 4-3.16 2.72-7.58 3.46-11.75 3.37-2.2-.05-4.61-.41-6.08-2.06a2.44 2.44 0 0 1-.64-2.46 3.24 3.24 0 0 1 2.32-1.5c.89-.26 2.08-.1 3-.36"/><path class="cls-1" d="M771.26 30.5a12.4 12.4 0 0 0-6.55 4.71 15.62 15.62 0 0 1-1.71 2.48 2.92 2.92 0 0 1-2.74.92 2.67 2.67 0 0 1-1.64-1.7 6 6 0 0 1-.23-2.42c.15-2.44.76-5.05-.37-7.21-.59-1.12-1.62-2.11-1.58-3.37s1.22-2.25 2.39-2.79a11 11 0 0 0 3.41-1.79 8.77 8.77 0 0 0 1.29-2c.42-.78.88-1.54 1.37-2.28a4 4 0 0 1 2.53-2.05 3.21 3.21 0 0 1 1.93.51 4 4 0 0 1 1.5 1.49 4.92 4.92 0 0 1-.06 3.73 12.78 12.78 0 0 0-1 3.69 4.46 4.46 0 0 0 .76 2.58c.79 1.18 2.2 2.13 2.21 3.55a2.1 2.1 0 0 1-2.16 2h-.21"/><circle class="cls-3" cx="386.51" cy="20.74" r="19.44"/><rect class="cls-3" x="385.71" y="19.23" width="18.57" height="33.26" rx="9.29" transform="rotate(-28.22 394.975 35.861)"/><path d="M404.19 49.47c-2-4.42-8.54-23.92-10.37-28.39a16.42 16.42 0 0 0-1.82-3.17c-1.24-1.79-3-3.57-4.92-3.42a3.54 3.54 0 0 0-2.91 3.32 7.36 7.36 0 0 0 1.51 5 4.29 4.29 0 0 0 2.11 1.71 1.63 1.63 0 0 0 2.08-.94c.33-1-.33-2.14-1-3.05a11.48 11.48 0 0 0-3.75-3.72 2.09 2.09 0 0 0-1.22-.28 3.1 3.1 0 0 0-2 1.9 8.35 8.35 0 0 0-.11 3.66c.79 4.45 13.15 19 19.25 29.28" stroke="#fff" stroke-width="3" fill="none" stroke-miterlimit="10"/><path class="cls-10" d="M392.93 38.32h18.5a.08.08 0 0 1 .08.08v13a8.9 8.9 0 0 1-8.9 8.9h-.77a8.9 8.9 0 0 1-8.9-8.9V38.32z" transform="rotate(-28.22 402.206 49.331)"/><path d="M404 34.34l-12.34 16.32c-1 1.28 1.2 2.53 2.15 1.26l12.32-16.32c1-1.29-1.2-2.53-2.15-1.26zm3.39 6.37L395.07 57c-1 1.28 1.2 2.53 2.16 1.26L409.55 42c1-1.28-1.2-2.53-2.16-1.26zm3.42 6.37l-10.45 13.85c-1 1.28 1.2 2.53 2.16 1.26L413 48.34c1-1.28-1.2-2.53-2.16-1.26z" fill="#757575"/><path class="cls-10" d="M147.94 240.85a18.38 18.38 0 1 1 18.37-18.38 18.4 18.4 0 0 1-18.37 18.38zm0-25.54a7.17 7.17 0 1 0 7.16 7.16 7.17 7.17 0 0 0-7.16-7.16z"/><rect class="cls-10" x="142.73" y="194.83" width="10.42" height="18.07" rx="4.68"/><rect class="cls-10" x="126.61" y="204.14" width="10.42" height="18.07" rx="4.68" transform="rotate(-60 131.825 213.172)"/><rect class="cls-10" x="126.61" y="222.74" width="10.42" height="18.07" rx="4.68" transform="rotate(-120 131.824 231.778)"/><rect class="cls-10" x="142.73" y="232.05" width="10.42" height="18.07" rx="4.68" transform="rotate(-180 147.94 241.08)"/><rect class="cls-10" x="158.84" y="222.74" width="10.42" height="18.07" rx="4.68" transform="rotate(120 164.051 231.775)"/><rect class="cls-10" x="158.84" y="204.14" width="10.42" height="18.07" rx="4.68" transform="rotate(60 164.055 213.172)"/><path class="cls-1" d="M159.82 198a12.92 12.92 0 1 1 15.78-9.2 12.92 12.92 0 0 1-15.78 9.2zm4.57-17.36a5 5 0 1 0 3.59 6.15 5 5 0 0 0-3.59-6.11z"/><rect class="cls-1" x="162.78" y="166.55" width="7.33" height="12.7" rx="3.29" transform="rotate(14.76 166.45 172.93)"/><rect class="cls-1" x="150.16" y="169.99" width="7.33" height="12.7" rx="3.29" transform="rotate(-45.24 153.805 176.33)"/><rect class="cls-1" x="146.82" y="182.64" width="7.33" height="12.7" rx="3.29" transform="rotate(-105.24 150.477 188.987)"/><rect class="cls-1" x="156.11" y="191.85" width="7.33" height="12.7" rx="3.29" transform="rotate(-165.24 159.77 198.203)"/><rect class="cls-1" x="168.73" y="188.41" width="7.33" height="12.7" rx="3.29" transform="rotate(134.76 172.394 194.767)"/><rect class="cls-1" x="172.07" y="175.76" width="7.33" height="12.7" rx="3.29" transform="rotate(74.8 176.648 182.8)"/></svg>